# xmcd
#
# Track frame offsets:
#	150
#	20025
#	38802
#	53641
#	64958
#	79090
#	96577
#	108124
#	122054
#	140731
#	159074
#	174059
#	200368
#
# Disc length: 3349 seconds
#
# Revision: 1
# Processed by: cddbd v1.5.2PL0 Copyright (c) Steve Scherf et al.
# Submitted via: audiograbber 1.83.01
#
DISCID=a70d130d
DTITLE=John Lee Hooker JR. - ALL ODDS AGAINST ME
DYEAR=2008
DGENRE=
TTITLE0=Dear John
TTITLE1=Extramaterial Affair
TTITLE2=One eye open
TTITLE3=I miss you so
TTITLE4=I've got your back
TTITLE5=Pay day
TTITLE6=Stressed out
TTITLE7=There's a struggle
TTITLE8=Old school
TTITLE9=Blues ain't nothing but a pimp
TTITLE10=The people want a change
TTITLE11=That be the blues
TTITLE12=Daten-CD
EXTD=
EXTT0=
EXTT1=
EXTT2=
EXTT3=
EXTT4=
EXTT5=
EXTT6=
EXTT7=
EXTT8=
EXTT9=
EXTT10=
EXTT11=
EXTT12=
PLAYORDER=
